<svg width="24" height="24" viewBox="0 0 24 24" fill="none" xmlns="http://www.w3.org/2000/svg">
  <!-- Definir el gradiente -->
  <defs>
    <linearGradient id="gradCelesteAzul" x1="0%" y1="0%" x2="100%" y2="100%">
      <stop offset="0%" style="stop-color:#79d5f8;stop-opacity:1" /> <!-- Celeste -->
        <stop offset="50%" style="stop-color:#5dbef4;stop-opacity:1" /> <!-- Azul -->
      <stop offset="100%" style="stop-color:#176ddc;stop-opacity:1" /> <!-- Azul -->
    </linearGradient>
  </defs>

  <!-- Aplicar el gradiente al primer path -->
  <path d="M15.2602 22C15.2002 22 15.1302 21.99 15.0702 21.97C13.0602 21.4 10.9502 21.4 8.94015 21.97C8.57015 22.07 8.18015 21.86 8.08015 21.49C7.97015 21.12 8.19015 20.73 8.56015 20.63C10.8202 19.99 13.2002 19.99 15.4602 20.63C15.8302 20.74 16.0502 21.12 15.9402 21.49C15.8402 21.8 15.5602 22 15.2602 22Z" fill="url(#gradCelesteAzul)" />

  <!-- Aplicar el gradiente al segundo path -->
  <path d="M19.2102 6.36001C18.1702 4.26001 16.1602 2.71001 13.8302 2.20001C11.3902 1.66001 8.89021 2.24001 6.98021 3.78001C5.06021 5.31001 3.97021 7.60001 3.97021 10.05C3.97021 12.64 5.52022 15.35 7.86021 16.92V17.75C7.85021 18.03 7.84021 18.46 8.18021 18.81C8.53021 19.17 9.05021 19.21 9.46021 19.21H14.5902C15.1302 19.21 15.5402 19.06 15.8202 18.78C16.2002 18.39 16.1902 17.89 16.1802 17.62V16.92C19.2802 14.83 21.2302 10.42 19.2102 6.36001ZM13.7202 11.62L12.6502 13.48C12.5102 13.72 12.2602 13.86 12.0002 13.86C11.8702 13.86 11.7402 13.83 11.6302 13.76C11.2702 13.55 11.1502 13.09 11.3502 12.74L12.2002 11.26H11.3602C10.8602 11.26 10.4502 11.04 10.2302 10.67C10.0102 10.29 10.0302 9.83001 10.2802 9.39001L11.3502 7.53001C11.5602 7.17001 12.0202 7.05001 12.3702 7.25001C12.7302 7.46001 12.8502 7.92001 12.6502 8.27001L11.8002 9.75001H12.6402C13.1402 9.75001 13.5502 9.97001 13.7702 10.34C13.9902 10.72 13.9702 11.19 13.7202 11.62Z" fill="url(#gradCelesteAzul)" />
</svg>
